<?xml version="1.0" encoding="UTF-8" standalone="no"?>
<!-- Generator: Adobe Illustrator 19.0.0, SVG Export Plug-In . SVG Version: 6.00 Build 0)  -->
<svg id="Layer_1" style="enable-background:new 0 0 349.5 110.3" xmlns="http://www.w3.org/2000/svg" xml:space="preserve" viewBox="0 0 349.5 110.3" version="1.1" y="0px" x="0px" xmlns:xlink="http://www.w3.org/1999/xlink">
<style type="text/css">
	.st0{fill:#FFFFFF;}
	.st1{fill:none;stroke:#000000;stroke-miterlimit:10;}
</style>
	<path class="st0" d="m30.2 59.1c-5.5 3.9-8.2 9.7-8.2 17.4 0 4.8 1.7 9.4 5.2 13.7s9.3 6.4 17.6 6.4 16.1-2.8 23.5-8.4 13-11.7 16.8-18.4l4.8 8.7c-12.3 20.8-29.3 31.2-51.2 31.2-10.8 0-20-2.9-27.5-8.8-7.4-5.8-11.2-12.7-11.2-20.6 0-13.8 6.1-23.8 18.4-30-4.1-5-6.1-10.9-6.1-17.7 0-8.8 3.8-16.4 11.5-22.8s16.5-9.6 26.6-9.6 17.9 2.6 23.3 7.7c5.5 5.1 8.2 11.9 8.2 20.3h-13.6c0.1-5.1-1.3-9-4.1-11.6s-6.7-3.9-11.7-3.9-9.5 1.8-13.5 5.4c-4.5 3.9-6.7 8.5-6.7 13.7s1.4 9.7 4.3 13.6c9.5-1.1 16.7-0.5 21.7 1.9 3 1.4 4.6 3.7 4.6 6.8s-1.7 5.3-5.2 6.5-7.6 1.9-12.5 1.9-9.8-1.2-15-3.4z"/>
	<path class="st0" d="m123.9 83.3c-3 7.7-7.3 14-12.8 18.9-5.6 4.9-11.9 7.3-19 7.3s-12.5-2.4-16-7.1c-3.6-4.7-5.3-10.1-5.3-16.2 0-1.2 0-2.5 0.1-3.7l4.7-40.5c3-1.1 6.3-1.7 9.7-1.7 6.3 0 9.4 2.3 9.4 7 0 0.2-0.8 6.5-2.4 19-1.5 12.5-2.3 19.7-2.3 21.7 0 5.4 2.6 8.1 7.8 8.1 4.5 0 8.2-2.5 11.3-7.6 5.3-9.1 8.1-19.4 8.4-31h-1.3c-4 0-7-0.9-9.1-2.7-2.4-2.1-3.6-4.6-3.6-7.6 0-2.9 0.9-5.3 2.7-7.1 2.2-1.9 4.8-2.9 7.8-2.9 7.2 0 11.7 3.8 13.6 11.3 2.9-0.4 4.9-0.8 6.1-1.1v8.1l-5.3 0.9v2.4c0 8.7-1.5 16.8-4.5 24.5zm-12.2-35.9c0 1.6 1.4 2.4 4.1 2.4h0.9c-0.7-2.6-1.7-3.9-3-3.9-1.4 0.1-2 0.5-2 1.5z"/>
	<path class="st0" d="m174.7 69.8c2.9-3.5 4.4-6.9 4.4-10.2s-0.9-5.5-2.6-6.7c-1.8-1.2-3.7-1.8-5.8-1.8-4.5 0-8.4 2.5-11.8 7.5s-5.1 10.9-5.1 17.8 1.6 12 4.9 15.4 7.3 5.1 12.2 5.1c7.1 0 14-2.5 20.5-7.4 6.6-4.9 11.9-11.4 16-19.4 2.1 2 4 4.5 5.7 7.4-3.1 7.1-8.7 14.1-16.7 21-4 3.3-8.7 6-14.2 8.1s-11.1 3.1-16.9 3.1c-9.5 0-17-2.9-22.5-8.7-5.9-6.3-8.8-14.3-8.8-24.1s3.7-18.4 11.1-25.7 16.2-11 26.5-11c7.3 0 13.3 1.6 17.8 4.8 4.6 3.2 6.9 7.5 7 12.9 0 7.3-2.9 13.3-8.8 17.8s-13.9 7.8-24 9.6l-2-8.4c5.8-1.2 10.2-3.6 13.1-7.1z"/>
	<path class="st0" d="m242 92.9l3.4-31.8c0-2.6-0.7-4.7-2-6.4s-3.5-2.6-6.6-2.6-5.7 1.4-7.8 4.1-3.5 6.1-4.1 10.2c-3.4 26.1-5.2 40.2-5.4 42.5h-19.3l7.8-67.2c4-1 7-1.6 9.1-1.6 6.4 0 9.7 2.3 10 7 4.7-4.6 10.2-6.8 16.8-6.8 6.5 0 11.6 1.6 15.3 4.8s5.6 7.3 5.6 12.3c0 1.3-0.3 3.9-0.9 7.6-2.2 14.5-3.3 22.9-3.3 25.2 0 4.4 1.5 6.6 4.4 6.6 6.5 0 10.7-8.6 16.1-20.5 0.9 3.8 2.4 6.7 4.4 8.3 0 17-13.8 25.1-26.2 25.1-5.9 0-10.3-1.8-13.1-5.4-2.7-3.6-4.2-7.4-4.2-11.4z"/>
<path class="st0" d="m349.5 77.4c0 10.8-4.1 18.8-12.4 24.2s-17.8 8.1-28.5 8.1c-18.5 0-22.9-5.6-36.3-13.9l9-19.5c2.2 4.9 4.9 9.8 10.4 13.5 5.7 3.8 11.2 5.8 16.6 5.8s9.8-1.7 13.2-5c3.4-3.3 5-7.4 5-12.3 0-3.1-0.8-5.8-2.4-8.1-4.1-5.6-12.3-8.4-24.5-8.4h-10.5l1.2-13.1c7 0 12.9-0.2 17.7-0.7s8.9-2.2 12.3-5.2c3.8-3.4 5.6-7.9 5.6-13.7 0-4-1.4-7.6-4.3-10.7-2.8-3.1-7-4.7-12.3-4.8-4.5 0.2-7.9 1.6-10 4.1-2.2 2.5-3.2 5.2-3.2 8s0.3 5 0.9 6.8h-20c-0.2-1.9-0.3-3.4-0.3-4.5 0-4.8 1.1-9.1 3.2-12.8 2.1-3.8 5-6.7 8.5-8.8 7.1-4.2 14.6-6.3 22.3-6.3 10.4 0 18.9 2.4 25.6 7.3s10 11.8 9.9 20.8c-0.3 11.9-6.3 20.3-18 25.2 6.3 1.3 11.5 4 15.4 8.4 3.9 4.2 5.9 9.5 5.9 15.6z"/>
<path class="st1" d="m356.8 110.3"/>
<path class="st1" d="m-13.9 110.3"/>
</svg>
